<?xml version="1.0" encoding="UTF-8"?>
<svg version="1.1" xmlns="http://www.w3.org/2000/svg" width="5175" height="975">
<path d="M0 0 C321.75 0 643.5 0 975 0 C975 195.36 975 390.72 975 592 C968.52876385 592 962.27304011 591.98049424 955.84765625 591.59765625 C955.14023788 591.55563583 954.43281952 591.51361542 953.70396423 591.47032166 C952.2328006 591.38200116 950.76173459 591.29203908 949.29077148 591.20043945 C947.04244157 591.0612583 944.79374545 590.92976364 942.54492188 590.79882812 C941.10413887 590.71139433 939.66338252 590.62351991 938.22265625 590.53515625 C936.93109619 590.456604 935.63953613 590.37805176 934.30883789 590.29711914 C931.70582981 590.06338042 929.50033 589.67127794 927 589 C926.99853344 587.87870697 926.99706688 586.75741394 926.99555588 585.60214233 C926.95896114 558.31879821 926.89951179 531.03557684 926.81609726 503.75233459 C926.77628773 490.55835771 926.7439049 477.36444063 926.72900391 464.17041016 C926.71599738 452.6705133 926.68905808 441.17074794 926.64538693 429.67092514 C926.62274987 423.58182711 926.60709068 417.4928914 926.60811615 411.40374756 C926.60886142 405.67127354 926.59096364 399.93915868 926.55883217 394.20677757 C926.55032066 392.10415472 926.5485917 390.00149164 926.55419731 387.89885902 C926.56083971 385.02419477 926.54291038 382.15067237 926.51898193 379.27612305 C926.52674235 378.4473081 926.53450277 377.61849316 926.54249835 376.76456261 C926.45985868 371.14249527 925.27155855 366.64770815 922 362 C918.61246734 359.08162747 915.41287912 357.77642826 910.9375 357.5625 C905.63154151 358.15205094 902.52644278 359.47355722 898.75 363.25 C894.98558258 369.16551309 894.7054389 375.21723939 894.7215271 382.00401306 C894.7157347 382.88795779 894.7099423 383.77190252 894.70397437 384.68263346 C894.68702602 387.63212835 894.68410231 390.58146628 894.68115234 393.53100586 C894.67185061 395.65024192 894.66168157 397.76947432 894.65071106 399.88870239 C894.62342473 405.63396466 894.60826563 411.37920243 894.59528303 417.12451243 C894.57964658 423.13166662 894.55285797 429.13877081 894.5272522 435.14588928 C894.48047359 446.51770445 894.44372499 457.88952904 894.41057932 469.26139122 C894.3723515 482.20934297 894.32294304 495.15724451 894.27259517 508.10515392 C894.16928892 534.73673681 894.08150013 561.36834083 894 588 C877.17 587.67 860.34 587.34 843 587 C842.99413376 583.17386612 842.98826752 579.34773224 842.98222351 575.40565491 C842.92703965 540.31360825 842.85707798 505.22161595 842.77101372 470.12963099 C842.75974565 465.52969892 842.74860718 460.92976656 842.73754883 456.32983398 C842.7342433 454.95619707 842.7342433 454.95619707 842.730871 453.55480992 C842.69550534 438.72992041 842.67063707 423.90503095 842.64965298 409.08011491 C842.62788511 393.86668075 842.59482529 378.65330131 842.55129844 363.43991369 C842.52479875 354.05358088 842.50709098 344.66731622 842.50065396 335.28094786 C842.49539494 328.84305017 842.47916067 322.40523822 842.45433434 315.96738649 C842.44033697 312.25391611 842.43114192 308.54059916 842.43499184 304.82710075 C842.43904323 300.7969704 842.41996452 296.76727423 842.39872742 292.73719788 C842.40357499 291.56889232 842.40842257 290.40058677 842.41341704 289.19687802 C842.34398087 281.21304227 841.76368476 274.23553337 836.4375 268 C831.94179006 265.38431422 828.17168952 264.72158931 823 265 C817.71842438 266.69409029 815.13834419 269.60631813 812 274 C810.94494022 277.12297591 810.87064224 280.03642172 810.8613348 283.31795883 C810.85312313 284.94445897 810.85312313 284.94445897 810.84474558 286.6038177 C810.84376747 287.79446936 810.84278936 288.98512102 810.84178162 290.21185303 C810.83437465 292.1097061 810.83437465 292.1097061 810.82681805 294.04589963 C810.813236 297.55994529 810.80581839 301.07398127 810.79939139 304.58804631 C810.79138775 308.37670733 810.77768984 312.16534822 810.76467896 315.95399475 C810.74291571 322.51881022 810.72477066 329.08362772 810.70907402 335.64846039 C810.68637402 345.1401389 810.65823137 354.63179512 810.62875474 364.12345472 C810.58108044 379.52256023 810.53781581 394.92167486 810.49731445 410.32080078 C810.45795871 425.28076893 810.41653229 440.24072899 810.37231445 455.20068359 C810.36822804 456.5835797 810.36822804 456.5835797 810.36405908 457.99441311 C810.35037959 462.61940869 810.33665932 467.24440415 810.32291877 471.86939955 C810.20895652 510.24624969 810.10241801 548.62311744 810 587 C792.84 587.33 775.68 587.66 758 588 C757.99635437 582.94167343 757.99270874 577.88334686 757.98895264 572.67173767 C757.95368974 526.30566907 757.89867891 479.93965723 757.82207905 433.57363784 C757.81206137 427.49904331 757.80221728 421.4244485 757.79248047 415.34985352 C757.7905391 414.14049071 757.78859772 412.9311279 757.78659752 411.68511773 C757.75556078 392.09304101 757.73859219 372.50097601 757.72680578 352.90887933 C757.7144029 332.8115415 757.68692101 312.71426526 757.64538693 292.61696631 C757.62022685 280.2118727 757.60688456 267.80688121 757.60857043 255.40176172 C757.60860014 246.89970763 757.59400753 238.39775771 757.56783572 229.8957442 C757.55316124 224.98759107 757.54501124 220.07965157 757.55419731 215.17148018 C757.56246375 210.6787393 757.55238591 206.18642828 757.52766338 201.69375128 C757.52196382 200.0678058 757.52301979 198.44181979 757.53148755 196.81588637 C757.54201333 194.60553227 757.52794678 192.39662708 757.50780869 190.1863699 C757.5062898 188.95873407 757.50477092 187.73109824 757.50320601 186.46626133 C756.76308741 181.36806215 754.78202001 177.48501667 750.75 174.125 C745.50546516 171.97950848 741.68314667 171.51502554 736.3125 173.0625 C731.65401687 175.78727315 728.74644424 178.76066728 727 184 C726.90192708 186.22971573 726.8661612 188.46231227 726.8613348 190.69417858 C726.85849258 191.38143146 726.85565036 192.06868433 726.85272202 192.77676305 C726.84435152 195.09656389 726.84310497 197.41631495 726.84178162 199.73612976 C726.83721787 201.40926428 726.83221812 203.08239767 726.82681805 204.7555297 C726.81320622 209.36638655 726.80580979 213.977236 726.79939139 218.58810771 C726.7914008 223.55539039 726.77769842 228.52265761 726.76467896 233.4899292 C726.74289715 242.10046086 726.7247589 250.71099408 726.70907402 259.32153893 C726.6863909 271.77104285 726.65824592 284.22052968 726.62875474 296.67001913 C726.58105971 316.86700065 726.53780071 337.06398916 726.49731445 357.26098633 C726.45796925 376.88403873 726.41654537 396.50708493 726.37231445 416.13012695 C726.36822804 417.94354451 726.36822804 417.94354451 726.36405908 419.79359677 C726.35037977 425.8583338 726.33665946 431.92307074 726.32291877 437.98780763 C726.20892397 488.32519214 726.10212126 538.6625901 726 589 C723.05437986 589.82328947 720.28177057 590.20032064 717.23144531 590.38891602 C715.82043549 590.4788961 715.82043549 590.4788961 714.38092041 590.57069397 C713.37349792 590.63115402 712.36607544 590.69161407 711.328125 590.75390625 C710.29057068 590.81907944 709.25301636 590.88425262 708.184021 590.95140076 C704.87288678 591.15858426 701.56146049 591.3606051 698.25 591.5625 C696.00388508 591.70213385 693.75779103 591.84210376 691.51171875 591.98242188 C686.00804858 592.32551313 680.50412977 592.66436718 675 593 C674.99902319 592.33363191 674.99804638 591.66726382 674.99703997 590.98070276 C674.9387868 551.4993585 674.86500432 512.01807064 674.77101372 472.53679457 C674.75974535 467.79780471 674.74860693 463.05881457 674.73754883 458.31982422 C674.7342433 456.90463361 674.7342433 456.90463361 674.730871 455.46085329 C674.69548425 440.17804673 674.67062789 424.89524021 674.64965298 409.61240785 C674.6279019 393.934554 674.59485808 378.25675338 674.55129844 362.5789448 C674.52476978 352.9023991 674.50708335 343.22591976 674.50065396 333.54933949 C674.4954038 326.91663498 674.47919933 320.284014 674.45433434 313.65135424 C674.44030659 309.82281641 674.43115327 305.99442818 674.43499184 302.16586304 C674.43902598 298.0164523 674.42001607 293.86746707 674.39872742 289.71810913 C674.40357499 288.50604652 674.40842257 287.29398391 674.41341704 286.04519212 C674.34939682 278.51228334 673.67158516 273.86241267 668.375 268.1875 C664.59607416 265.29001096 660.68517046 264.72248119 656 265 C650.75172294 266.54867192 648.0285052 268.45724219 645 273 C643.71929453 275.56141095 643.87038216 277.37157386 643.86412811 280.24086094 C643.85927037 281.35891292 643.85441262 282.4769649 643.84940767 283.62889725 C643.84896369 285.48679073 643.84896369 285.48679073 643.84851074 287.38221741 C643.84427833 288.68995745 643.84004592 289.99769749 643.83568525 291.34506601 C643.82401515 294.98711951 643.81855403 298.62916047 643.81405044 302.27122891 C643.80811318 306.19423104 643.79644276 310.11721638 643.78541565 314.04020691 C643.76704579 320.84133018 643.75220861 327.64245381 643.73963928 334.44359016 C643.72137202 344.27807278 643.69670721 354.11253142 643.67026538 363.94699507 C643.62744689 379.90288808 643.58833693 395.85878768 643.55224609 411.81469727 C643.55008329 412.77030068 643.54792049 413.72590409 643.54569215 414.71046519 C643.52816831 422.46539612 643.51082345 430.22032746 643.49348927 437.97525883 C643.47832703 444.75539735 643.46309442 451.53553571 643.44775391 458.31567383 C643.44559504 459.27042156 643.44343617 460.2251693 643.44121188 461.20884878 C643.40514731 477.10481092 643.36519819 493.00076099 643.32245111 508.89670652 C643.29624726 518.71157669 643.27359997 528.52644313 643.25546753 538.34133159 C643.24283315 545.06085014 643.22671947 551.78035438 643.20781839 558.49985821 C643.19702532 562.38243238 643.18791957 566.2649926 643.18312263 570.14757919 C643.17790499 574.34666732 643.16509549 578.54569694 643.15148926 582.74476624 C643.15104528 584.6060058 643.15104528 584.6060058 643.15059233 586.50484616 C643.14573458 587.62029039 643.14087684 588.73573463 643.13587189 589.8849802 C643.13375592 590.85560038 643.13163995 591.82622056 643.12945986 592.82625347 C643 595 643 595 642 596 C640.58833583 596.2388068 639.16656622 596.41839717 637.74316406 596.57250977 C636.83842346 596.67253799 635.93368286 596.77256622 635.00152588 596.87562561 C634.01617859 596.97983322 633.0308313 597.08404083 632.015625 597.19140625 C631.00788025 597.30097153 630.0001355 597.4105368 628.96185303 597.52342224 C626.823428 597.75493992 624.68476748 597.9842909 622.54589844 598.21166992 C619.2773927 598.5595842 616.00976534 598.91497199 612.7421875 599.27148438 C610.66671484 599.49523895 608.59119541 599.71856025 606.515625 599.94140625 C605.53837463 600.04763809 604.56112427 600.15386993 603.55426025 600.26332092 C602.63691101 600.36019699 601.71956177 600.45707306 600.77441406 600.55688477 C599.97134827 600.64269302 599.16828247 600.72850128 598.34088135 600.81690979 C595.88440341 601.0090413 593.46301198 601.01197461 591 601 C590.99853344 599.80471113 590.99706688 598.60942226 590.99555588 597.37791252 C590.95985432 569.00452052 590.90361379 540.63122007 590.82207905 512.257923 C590.81206158 508.76569909 590.80221746 505.27347471 590.79248047 501.78125 C590.7905391 501.08601062 590.78859772 500.39077124 590.78659752 499.674464 C590.75557595 488.41706634 590.73859644 477.15968906 590.72680578 465.90225671 C590.71439501 454.35117839 590.68659791 442.80022285 590.64538693 431.24920952 C590.62272729 424.76111324 590.60709203 418.27316974 590.60811615 411.78503036 C590.60886009 405.67993911 590.59101606 399.57518618 590.55883217 393.47018242 C590.55030387 391.22803858 590.548603 388.98585692 590.55419731 386.74370384 C590.56081442 383.68444102 590.54297066 380.62626184 590.51898193 377.56710815 C590.52674235 376.67799425 590.53450277 375.78888035 590.54249835 374.8728236 C590.46682213 369.42842622 589.60875621 366.32977267 586 362 C582.07694871 358.55247008 578.44748886 357.57294299 573.1953125 357.66015625 C569.18140465 358.28152633 565.84582084 360.12893907 563 363 C559.98380219 368.70988969 559.56660782 373.37046464 559.60127258 379.76329041 C559.59462576 380.72890618 559.58797893 381.69452196 559.58113068 382.68939883 C559.56252251 385.91535506 559.56510456 389.14093968 559.56762695 392.36694336 C559.55860849 394.68322269 559.54828106 396.99949723 559.53674316 399.31576538 C559.50915717 405.59822095 559.49988641 411.88058599 559.49388909 418.16309428 C559.48450966 424.73080074 559.45830658 431.29843948 559.43388367 437.86610413 C559.39467122 448.88769237 559.36681787 459.90926994 559.34643555 470.9309082 C559.32541699 482.28119517 559.29813426 493.6314387 559.26245117 504.98168945 C559.26025235 505.68179435 559.25805352 506.38189925 559.25578807 507.10321944 C559.24471819 510.61558208 559.23352543 514.12794431 559.22227156 517.64030635 C559.1291283 546.7601633 559.05773238 575.88005175 559 605 C557.55310138 605.32415173 556.10604361 605.64759317 554.65891838 605.97073174 C553.85310511 606.15092381 553.04729183 606.33111589 552.21705997 606.51676834 C549.96735756 607.00711476 547.72149809 607.42763711 545.44580078 607.77783203 C544.29013107 607.95779221 544.29013107 607.95779221 543.1111145 608.14138794 C542.31389984 608.26230804 541.51668518 608.38322815 540.6953125 608.5078125 C539.8495163 608.63815887 539.00372009 608.76850525 538.1322937 608.90280151 C536.36283266 609.17477298 534.59314529 609.4452758 532.82324219 609.71435547 C530.11069733 610.12717672 527.39907198 610.54568481 524.6875 610.96484375 C522.96098891 611.22950224 521.23442813 611.49383685 519.5078125 611.7578125 C518.69845245 611.88278107 517.88909241 612.00774963 517.0552063 612.13650513 C514.00658407 612.59760796 511.0882427 613 508 613 C507.99853344 612.03662909 507.99706688 611.07325817 507.99555588 610.0806942 C507.95896904 586.64517708 507.89953015 563.20980297 507.81609726 539.77440453 C507.77627943 528.4412347 507.74390086 517.10813459 507.72900391 505.77490234 C507.71600164 495.89743058 507.68907336 486.02011203 507.64538693 476.14272654 C507.62274014 470.91217703 507.60709125 465.68181673 507.60811615 460.45121384 C507.60886086 455.52800602 507.59098621 450.60521696 507.55883217 445.68211746 C507.5503135 443.87536783 507.54859656 442.06857134 507.55419731 440.2618103 C507.56082925 437.79362825 507.54293719 435.32678171 507.51898193 432.85873413 C507.52674235 432.1447129 507.53450277 431.43069167 507.54249835 430.69503343 C507.45660826 425.6919164 506.09915084 422.87618998 503 419 C499.75110767 416.1449128 497.15703148 415.11343446 492.8125 414.6875 C488.25297809 415.0612313 484.49223186 415.94699731 481 419 C477.56204733 424.35168348 476.41360177 428.96365692 476.48101807 435.25109863 C476.47351681 436.04197608 476.46601556 436.83285354 476.458287 437.64769697 C476.43811731 440.27647169 476.44609111 442.90437502 476.45410156 445.53320312 C476.4453607 447.42599332 476.43487313 449.31877613 476.42277527 451.21154785 C476.39495758 456.33493668 476.39150966 461.45808388 476.39249516 466.58153725 C476.38936243 471.94141655 476.3637367 477.30118761 476.34051514 482.66101074 C476.29997922 492.80387593 476.27962005 502.94667687 476.26654124 513.08961058 C476.25066308 524.63981533 476.21224396 536.18991087 476.17194796 547.74005222 C476.08958192 571.49333148 476.03546918 595.24660769 476 619 C469.54175569 620.28839221 463.08207176 621.56936576 456.62133789 622.84521484 C454.42405978 623.2800337 452.22711568 623.71654398 450.03051758 624.15478516 C446.87147113 624.78473744 443.71126988 625.40857898 440.55078125 626.03125 C439.57039383 626.22811401 438.59000641 626.42497803 437.57991028 626.62780762 C436.19904488 626.89808777 436.19904488 626.89808777 434.7902832 627.17382812 C433.9842012 627.33371216 433.1781192 627.49359619 432.34761047 627.6583252 C429.86730819 628.01931217 427.50291853 628.05872927 425 628 C424.99761165 627.25823957 424.99522329 626.51647915 424.99276257 625.75224113 C424.9336136 607.69937191 424.85806417 589.64663941 424.76428509 571.59391594 C424.71932915 562.86372968 424.67991402 554.13358419 424.65356445 545.40332031 C424.63058274 537.79357289 424.59718278 530.18395453 424.55129844 522.57430947 C424.52736851 518.54544991 424.50863825 514.51671815 424.50238609 510.48778915 C424.49633415 506.69399521 424.47633063 502.90052825 424.44572449 499.10685539 C424.43694597 497.71614923 424.43322131 496.32540033 424.43499184 494.93466759 C424.43664914 493.03183666 424.41814998 491.12902036 424.39872742 489.22628784 C424.39411845 488.16253874 424.38950949 487.09878963 424.38476086 486.00280571 C423.760649 481.1320227 422.04214838 477.91808309 418.375 474.6875 C413.50485669 472.25242834 409.15552165 471.20416297 403.78515625 472.55859375 C399.14826282 474.50142619 397.10179886 476.73068499 394.86249542 481.36621094 C393.01641006 487.00357353 393.43139515 492.98799189 393.45410156 498.86132812 C393.4453565 500.3600369 393.43486747 501.85873636 393.42277527 503.35742188 C393.39500856 507.40648067 393.39150851 511.4552334 393.39249516 515.50437355 C393.38935799 519.74317844 393.36372311 523.9818471 393.34051514 528.22058105 C393.30001299 536.23848786 393.27962806 544.25631346 393.26654124 552.27430677 C393.25065156 561.40619294 393.21222767 570.53794128 393.17194796 579.66974735 C393.08962812 598.44647925 393.0384609 617.22312351 393 636 C376.5 639.96 360 643.92 343 648 C342.9906543 643.67970703 342.98130859 639.35941406 342.97167969 634.90820312 C342.93791458 620.63494579 342.88256889 606.36183243 342.81609726 592.08869171 C342.77632196 583.43477577 342.74392182 574.78095056 342.72900391 566.12695312 C342.71597954 558.58234915 342.68899493 551.03794496 342.64538693 543.4934535 C342.62278964 539.50026124 342.60708827 535.50731522 342.60811615 531.51405334 C342.6088638 527.75136374 342.59087163 523.98921811 342.55883217 520.22666931 C342.54632219 518.19574761 342.55338902 516.16473449 342.56114197 514.13378906 C342.47946812 506.95642217 341.94796829 502.06727052 338 496 C334.51115958 492.67729484 331.76424491 491.72830931 327.0625 491.5 C321.94890896 491.73103574 319.04792129 492.86079574 315 496 C312.37349101 500.31520248 311.62174383 503.54841252 311.60127258 508.56796265 C311.58873444 509.87199036 311.57619629 511.17601807 311.5632782 512.51956177 C311.56445208 513.9523318 311.56591117 515.38510161 311.56762695 516.81787109 C311.55860485 518.33598629 311.54827653 519.85409419 311.53674316 521.37219238 C311.50919949 525.48329555 311.49989225 529.59426039 311.49388909 533.70544386 C311.48449856 538.00564 311.45829461 542.3057331 311.43388367 546.60586548 C311.39023366 554.74423449 311.3616775 562.88258348 311.33856028 571.02103388 C311.31150058 580.288287 311.26758954 589.55543637 311.22227156 598.82261539 C311.12944676 617.88168881 311.05775611 636.94078967 311 656 C302.51783438 659.22338202 302.51783438 659.22338202 298.35986328 660.44213867 C297.54607208 660.6821611 296.73228088 660.92218353 295.89382935 661.16947937 C295.04456879 661.41648087 294.19530823 661.66348236 293.3203125 661.91796875 C292.42633759 662.18007645 291.53236267 662.44218414 290.61129761 662.7122345 C288.73771682 663.26072627 286.86369648 663.80771866 284.98925781 664.35327148 C282.11134665 665.1914766 279.23529473 666.03584995 276.359375 666.88085938 C274.53396136 667.41442936 272.70844418 667.94764527 270.8828125 668.48046875 C270.02140656 668.73354294 269.16000061 668.98661713 268.27249146 669.24736023 C267.47761322 669.47792618 266.68273499 669.70849213 265.86376953 669.94604492 C265.1639798 670.15017502 264.46419006 670.35430511 263.74319458 670.56462097 C262 671 262 671 260 671 C259.99853344 670.23247091 259.99706688 669.46494183 259.99555588 668.67415428 C259.95849844 649.99537745 259.89949787 631.3167878 259.81609726 612.6381588 C259.77629396 603.60528644 259.74390804 594.57250137 259.72900391 585.53955078 C259.71599407 577.66609192 259.68904655 569.79282501 259.64538693 561.91947424 C259.62275699 557.75084908 259.60709023 553.5824608 259.60811615 549.41376877 C259.60886187 545.48858022 259.59094713 541.5639156 259.55883217 537.63886261 C259.55032615 536.19978093 259.54858806 534.76064053 259.55419731 533.32154465 C259.56084698 531.35304172 259.54053935 529.38450329 259.51898193 527.41610718 C259.51529476 526.31548635 259.51160759 525.21486553 259.50780869 524.08089256 C258.78193371 519.67698439 256.68201879 516.46637536 253.32421875 513.5390625 C249.07633218 511.16673444 245.96358176 510.30335695 241 511 C236.19418001 512.4453594 233.74414592 513.87884543 230.91571045 518.14025879 C227.84776619 524.50788773 228.42844177 531.50729637 228.45410156 538.41210938 C228.44535726 539.9699303 228.4348685 541.52774225 228.42277527 543.08554077 C228.39499927 547.29574855 228.39150872 551.50566203 228.39249516 555.7159481 C228.3893588 560.1229137 228.36372559 564.52974816 228.34051514 568.93664551 C228.30000683 577.27329608 228.2796266 585.60986854 228.26654124 593.94660234 C228.25065366 603.44123581 228.21223064 612.93573666 228.17194796 622.43029308 C228.08961978 641.95348676 228.03548346 661.4766678 228 681 C226.42707737 681.63315165 224.85375025 682.26529851 223.28025818 682.89703369 C222.4041561 683.24917057 221.52805403 683.60130745 220.6254034 683.96411514 C216.79268765 685.47635978 212.92077745 686.86502487 209.03515625 688.234375 C207.8351725 688.65870819 207.8351725 688.65870819 206.61094666 689.09161377 C204.94179574 689.68086153 203.27224185 690.26896898 201.60229492 690.85595703 C199.04233189 691.75709946 196.48503519 692.66555301 193.92773438 693.57421875 C192.29703239 694.1488843 190.66617846 694.72311894 189.03515625 695.296875 C187.8914431 695.70459137 187.8914431 695.70459137 186.72462463 696.12054443 C183.69306897 697.17930539 181.23583966 698 178 698 C177.99761165 697.01270401 177.99522329 696.02540802 177.99276257 695.00819397 C177.93395478 670.97948305 177.85806396 646.9508723 177.76428509 622.92227173 C177.71932927 611.30219429 177.67991404 599.68214748 177.65356445 588.06201172 C177.63058272 577.93330596 177.5971826 567.80469716 177.55129844 557.67606831 C177.52736872 552.31358211 177.50863825 546.95119193 177.50238609 541.58865356 C177.49633419 536.53910351 177.4763302 531.48979912 177.44572449 526.44034004 C177.43694602 524.58927682 177.43322128 522.7381815 177.43499184 520.88709831 C177.43664933 518.35413735 177.41990515 515.82192107 177.39872742 513.2890625 C177.40357499 512.56141221 177.40842257 511.83376192 177.41341704 511.08406162 C177.32731812 504.81799413 176.13405276 499.08070144 171.5 494.5625 C166.56385877 491.47741173 161.67020105 491.26003446 156 492 C151.3483477 493.84685267 149.45086124 495.97340565 147.43287945 500.56827545 C145.80899709 505.03981723 145.57185946 509.06059273 145.60127258 513.78259277 C145.59462576 514.63063996 145.58797893 515.47868714 145.58113068 516.35243273 C145.5625805 519.17453268 145.56510057 521.99620568 145.56762695 524.81835938 C145.55860492 526.84907628 145.54827662 528.87978775 145.53674316 530.91049194 C145.50919896 536.40985727 145.4998921 541.90911918 145.49388909 547.40854454 C145.48449877 553.16079164 145.4582948 558.9129617 145.43388367 564.66516113 C145.3902332 575.55174776 145.36167726 586.43831943 145.33856028 597.32496691 C145.31150088 609.72157523 145.26758978 622.118106 145.22227156 634.51465893 C145.12944604 660.00973056 145.05775567 685.50482651 145 711 C143.90123535 711.43344727 142.8024707 711.86689453 141.67041016 712.31347656 C137.5515011 713.93840125 133.4327154 715.56363845 129.31396484 717.18896484 C127.53925834 717.88924399 125.76451942 718.58944101 123.98974609 719.28955078 C122.26555353 719.96971904 120.54141141 720.6500152 118.81732178 721.33044434 C117.14156946 721.99171579 115.46566782 722.65260898 113.78961182 723.31311035 C108.74198423 725.30423905 103.70649969 727.32186088 98.69287109 729.39746094 C97 730 97 730 95 730 C94.99780016 728.1093343 94.99780016 728.1093343 94.99555588 726.18047333 C94.95984325 696.25080749 94.90358677 666.32125702 94.82207905 636.39168414 C94.81206176 632.70676118 94.8022176 629.02183778 94.79248047 625.33691406 C94.78956841 624.23652494 94.78956841 624.23652494 94.78659752 623.11390573 C94.75558808 611.24030566 94.73859982 599.36672492 94.72680578 587.493092 C94.71438873 575.30694456 94.68687487 563.12089842 94.64538693 550.93481493 C94.62026729 543.41711923 94.60688159 535.89959155 94.60857043 528.38185328 C94.60860374 522.61434032 94.58761856 516.84705061 94.55883217 511.07961655 C94.5503144 508.71575759 94.54859591 506.35186282 94.55419731 503.98799515 C94.56083012 500.75867161 94.54293235 497.5303683 94.51898193 494.30114746 C94.53062256 492.90034164 94.53062256 492.90034164 94.54249835 491.47123671 C94.46423589 485.50396312 93.35980635 480.99759747 90 476 C86.62432553 473.0488949 82.81735021 472.11471582 78.4375 471.5 C72.91809031 472.30282323 69.54672335 474.19036065 65.92770004 478.42455482 C63.05020013 482.86259563 63.44126405 487.53539976 63.48101807 492.6680603 C63.46976619 494.2805862 63.46976619 494.2805862 63.458287 495.92568839 C63.4379869 499.5279661 63.44611747 503.12961578 63.45410156 506.73193359 C63.44536787 509.31407291 63.4348828 511.89620682 63.42277527 514.47833252 C63.39947361 520.03748698 63.39071425 525.59651103 63.39188385 531.15571213 C63.39355377 539.19331105 63.37321146 547.23073624 63.34752855 555.26828881 C63.30645436 568.30922183 63.28313637 581.35012359 63.27099609 594.39111328 C63.2591662 607.05781052 63.23896678 619.7244489 63.20751953 632.39111328 C63.20558343 633.17212978 63.20364733 633.95314628 63.20165256 634.75782995 C63.19188792 638.67603316 63.18195882 642.59423594 63.17194796 646.51243854 C63.08913502 679.00826714 63.03514351 711.50408434 63 744 C60.48008651 745.265435 57.95957629 746.52965707 55.4387207 747.79321289 C54.38225719 748.32397305 54.38225719 748.32397305 53.30445099 748.86545563 C46.66045382 752.19361415 39.94046449 755.33605184 33.1875 758.4375 C22.08784516 763.54995048 11.04551737 768.76791282 0 774 C0 518.58 0 263.16 0 0 Z " fill="#00B2B2" transform="translate(0,0)"/>
<path d="M0 0 C0 113.52 0 227.04 0 344 C-321.75 344 -643.5 344 -975 344 C-975 330.8 -975 317.6 -975 304 C-967.08 300.04 -967.08 300.04 -959 296 C-956.3314355 294.20118986 -953.94781528 292.52306679 -951.5 290.5 C-919.93254472 265.75837453 -883.97960433 245.09819423 -848.93994141 225.63769531 C-845.86336389 223.92388681 -842.79652272 222.19349536 -839.73046875 220.4609375 C-822.76785305 210.90916101 -805.55205684 201.91398351 -788.19122314 193.11187744 C-785.97776346 191.98871666 -783.76584563 190.86256645 -781.55419922 189.73583984 C-760.28604572 178.91029951 -738.84155968 168.61670806 -717 159 C-716.17844421 158.63777344 -715.35688843 158.27554688 -714.51043701 157.90234375 C-626.46502144 119.11329341 -536.00813822 87.27136427 -188 13 C-186.92758057 12.86871704 -185.85516113 12.73743408 -184.75024414 12.60217285 C-137.2689906 6.81822187 -89.52929948 2.95260254 -41.75 0.6875 C-40.93349976 0.64798218 -40.11699951 0.60846436 -39.27575684 0.56774902 C-26.16489815 -0.04900259 -13.14578385 0 0 0 Z " fill="#0F253E" transform="translate(975,631)"/>
<path d="M0 0 C1.05288712 -0.00101212 1.05288712 -0.00101212 2.12704468 -0.00204468 C50.30128039 0.07102005 92.61516747 16.97640963 126.890625 51.0625 C130.43042151 54.92409619 133.59636025 59.11496318 136.8125 63.25 C137.1425 44.77 137.4725 26.29 137.8125 7.25 C172.7925 7.25 207.7725 7.25 243.8125 7.25 C243.87869867 63.31110586 243.9340672 119.3721747 243.96569599 175.43330849 C243.96944788 182.05938021 243.97333087 188.68545184 243.97729492 195.31152344 C243.97808185 196.63059495 243.97886878 197.94966647 243.97967956 199.30870984 C243.99260227 220.63663174 244.01635952 241.964526 244.04395839 263.29243423 C244.07206272 285.19443929 244.08868688 307.09643162 244.09476548 328.99845397 C244.09887151 342.50137205 244.1118165 356.00422119 244.1362494 369.50711803 C244.15216871 378.78014866 244.1568864 388.05314392 244.15300413 397.32618721 C244.15109219 402.6675627 244.15391855 408.00881816 244.17011642 413.35017204 C244.2880811 454.24981286 244.2880811 454.24981286 240.8125 472.25 C240.6090758 473.39407885 240.40565161 474.53815769 240.19606304 475.71690559 C239.73872651 478.22829441 239.21009501 480.70310451 238.625 483.1875 C238.4185083 484.0738916 238.2120166 484.9602832 237.99926758 485.87353516 C233.9543491 502.47500928 228.03000447 518.28037855 219.8125 533.25 C219.1690966 534.46084494 218.52586646 535.67178195 217.8828125 536.8828125 C211.16265626 549.30163413 202.51218757 560.02517011 192.8125 570.25 C192.35037109 570.74467773 191.88824219 571.23935547 191.41210938 571.74902344 C155.74960723 609.72514793 104.83375948 626.48320436 53.8125 629.25 C48.52000573 629.40429423 43.23166805 629.44585543 37.9375 629.4375 C37.22183868 629.43689575 36.50617737 629.4362915 35.76882935 629.43566895 C-7.07448145 629.33829913 -49.19424664 621.66322062 -87.1875 601.25 C-88.3425 600.64800781 -89.4975 600.04601562 -90.6875 599.42578125 C-111.62816315 588.07498998 -130.4188234 571.67876654 -144.1875 552.25 C-144.77821289 551.42363037 -144.77821289 551.42363037 -145.38085938 550.58056641 C-160.43474868 529.21639938 -172.1875 500.70659908 -172.1875 474.25 C-137.2075 474.25 -102.2275 474.25 -66.1875 474.25 C-64.2075 479.2 -62.2275 484.15 -60.1875 489.25 C-46.69359737 510.87993216 -27.42115274 524.15487214 -3.125 531.0625 C-2.44211914 531.2574707 -1.75923828 531.45244141 -1.05566406 531.65332031 C10.50411654 534.71469145 22.20567741 535.61776362 34.125 535.5625 C36.02403076 535.55512817 36.02403076 535.55512817 37.96142578 535.54760742 C62.81913699 535.23748243 87.10927258 528.19882083 105.8125 511.25 C106.65425781 510.50105469 107.49601562 509.75210937 108.36328125 508.98046875 C123.37990277 494.87532654 131.05639373 475.34577748 134.5 455.375 C134.67909912 454.35200806 134.67909912 454.35200806 134.86181641 453.30834961 C136.86558578 440.75941766 136.95904158 428.02316205 136.91015625 415.34765625 C136.90828422 413.88935902 136.90686404 412.43106115 136.90586853 410.97276306 C136.90210501 407.19013642 136.89232982 403.40755003 136.88116455 399.62493896 C136.87081547 395.74280339 136.86634242 391.86066111 136.86132812 387.97851562 C136.8507 380.40232568 136.83370075 372.82616854 136.8125 365.25 C136.28140625 365.91749268 135.7503125 366.58498535 135.203125 367.27270508 C134.49671875 368.15853271 133.7903125 369.04436035 133.0625 369.95703125 C132.36640625 370.83077393 131.6703125 371.7045166 130.953125 372.60473633 C118.67099733 387.78229715 103.69266786 399.53408943 86.8125 409.25 C86.24337891 409.58241699 85.67425781 409.91483398 85.08789062 410.25732422 C45.52750545 433.18785824 -4.37606056 436.59342696 -48.1875 425.25 C-75.0550502 417.79798083 -99.49634748 404.98273067 -120.1875 386.25 C-121.05503906 385.50234375 -121.92257812 384.7546875 -122.81640625 383.984375 C-138.74873131 370.12150687 -150.80336381 353.52530368 -161.1875 335.25 C-161.52346191 334.67378906 -161.85942383 334.09757812 -162.20556641 333.50390625 C-176.67569497 308.61330967 -184.16188254 280.57021885 -188.1875 252.25 C-188.30609375 251.42306641 -188.4246875 250.59613281 -188.546875 249.74414062 C-196.82982229 188.75601088 -184.60349308 121.9804799 -147.1875 72.25 C-144.3032633 68.472196 -141.31313012 64.83026723 -138.1875 61.25 C-137.74325684 60.73872559 -137.29901367 60.22745117 -136.84130859 59.70068359 C-121.88530856 42.61031099 -104.24488563 29.80443042 -84.1875 19.25 C-83.58744141 18.93289063 -82.98738281 18.61578125 -82.36914062 18.2890625 C-56.96965992 5.0959915 -28.39356792 0.02467806 0 0 Z M18.3046875 93.49609375 C-3.66966066 95.61489273 -24.6117602 103.45536222 -41.1875 118.25 C-42.00347656 118.92417969 -42.81945313 119.59835937 -43.66015625 120.29296875 C-66.96251737 140.06576049 -78.92984925 170.38862776 -81.5625 200.25 C-84.37586941 237.96720382 -75.16948896 274.00030204 -50.23071289 302.9777832 C-33.03280719 322.28787541 -7.45005315 335.85374815 18.54589844 337.4140625 C49.38589403 338.62783733 76.4508449 330.42582321 99.9375 309.875 C101.57716989 308.34894503 103.20257319 306.80740065 104.8125 305.25 C105.92044922 304.18072266 105.92044922 304.18072266 107.05078125 303.08984375 C130.65405765 278.64808506 137.88756516 244.16607119 137.8125 211.25 C137.00026708 181.21280426 128.40913013 153.34883913 108.8125 130.25 C108.29429688 129.58613281 107.77609375 128.92226563 107.2421875 128.23828125 C89.76011673 106.58335439 61.87152482 96.39042327 35.08251953 93.47265625 C29.37769596 92.91309515 24.00879339 93.09591706 18.3046875 93.49609375 Z " fill="#0F253E" transform="translate(4441.1875,241.75)"/>
<path d="M0 0 C305.15368421 0 305.15368421 0 353.25 45.875 C373.46801868 67.17073823 387.01687813 96.11172287 387.203125 125.7421875 C387.20882507 126.46882599 387.21452515 127.19546448 387.22039795 127.94412231 C387.22979519 129.4786842 387.23636079 131.01326579 387.24023438 132.54785156 C387.2498295 134.83437059 387.28085565 137.11994544 387.3125 139.40625 C387.41113694 152.99257121 385.80961682 166.3101508 381.25 179.1875 C380.99323486 179.92887207 380.73646973 180.67024414 380.47192383 181.43408203 C370.01250358 210.72045872 347.2753345 234.29328932 319.46679688 247.80249023 C313.72950646 250.5188425 308.08132537 253.13181685 302 255 C303.01578125 255.30292969 304.0315625 255.60585938 305.078125 255.91796875 C341.2119517 266.84102083 367.8438709 288.33774237 385.875 321.5625 C389.81738449 329.13794474 392.77560755 336.73971052 395 345 C395.19464844 345.66612305 395.38929688 346.33224609 395.58984375 347.01855469 C405.204372 380.77937364 399.78635701 420.23579035 383.11987305 450.77954102 C377.37065796 460.85130902 369.91813072 469.57959979 362 478 C361.4740625 478.59039063 360.948125 479.18078125 360.40625 479.7890625 C338.79562851 503.05355809 304.76555493 515.40602955 274.3125 521.1875 C273.11391357 521.42001465 273.11391357 521.42001465 271.89111328 521.65722656 C182.64611505 537.4823972 90.63722047 525 0 525 C0 351.75 0 178.5 0 0 Z M106 85 C106 128.23 106 171.46 106 216 C123.098125 216.061875 140.19625 216.12375 157.8125 216.1875 C165.85395386 216.22846802 165.85395386 216.22846802 174.05786133 216.27026367 C178.9433794 216.28030863 178.9433794 216.28030863 183.8289032 216.28633118 C185.97308735 216.29088092 188.11726476 216.30131067 190.26139832 216.31672668 C214.98506766 216.48530564 243.03357738 215.25426042 262.09765625 197.1171875 C276.07121453 181.56550662 279.92953568 164.11034994 279.17919922 143.57128906 C278.05046612 127.37535306 270.9524985 112.9334271 259 102 C255.491816 99.3181657 251.88320514 97.0956107 248 95 C247.17242188 94.53980469 246.34484375 94.07960938 245.4921875 93.60546875 C239.90099328 90.77567473 234.2020875 89.14198714 228.125 87.75 C227.41851318 87.58669189 226.71202637 87.42338379 225.98413086 87.25512695 C211.8344507 84.25851749 197.23255179 84.86627124 182.85546875 84.90234375 C180.88301624 84.90381713 178.91056333 84.9048354 176.93811035 84.90539551 C169.68790087 84.91060248 162.43769981 84.92456364 155.1875 84.9375 C138.955625 84.958125 122.72375 84.97875 106 85 Z M106 298 C106 344.2 106 390.4 106 438 C125.284375 438.061875 144.56875 438.12375 164.4375 438.1875 C170.49536865 438.21481201 176.5532373 438.24212402 182.79467773 438.27026367 C188.29095968 438.28030553 188.29095968 438.28030553 193.7872467 438.28633118 C196.20901653 438.2908961 198.63078013 438.30135902 201.05250549 438.31672668 C228.02094779 438.47909993 254.49095122 436.51742613 274.8125 416.6875 C288.27018329 402.55980403 292.38608525 385.19618641 292.21484375 366.07421875 C291.46738407 346.8120436 284.24139597 330.51836595 270.1875 317.1875 C248.35087927 298.60957498 221.44117188 297.52782094 194.18359375 297.70703125 C191.91736066 297.71145322 189.65112448 297.71450689 187.3848877 297.71618652 C179.06904446 297.73178637 170.75326721 297.77366964 162.4375 297.8125 C143.813125 297.874375 125.18875 297.93625 106 298 Z " fill="#0F253E" transform="translate(2774,141)"/>
<path d="M0 0 C35.31 0 70.62 0 107 0 C107 183.81 107 367.62 107 557 C71.69 557 36.38 557 0 557 C-0.33 537.53 -0.66 518.06 -1 498 C-3.64 501.63 -6.28 505.26 -9 509 C-30.01109844 534.48985905 -59.11195246 551.09176421 -91 559 C-92.23234375 559.31453125 -93.4646875 559.6290625 -94.734375 559.953125 C-110.2167507 563.46246349 -127.15864132 564.83375572 -143 564 C-143.79100098 563.95891113 -144.58200195 563.91782227 -145.39697266 563.87548828 C-195.1622487 561.04287664 -240.47834747 540.09485225 -274 503 C-277.89092598 498.5012418 -281.48995726 493.7993388 -285 489 C-285.40927734 488.44570313 -285.81855469 487.89140625 -286.24023438 487.3203125 C-309.51087705 455.39344043 -321.30990261 417.85652423 -326 379 C-326.103125 378.17814209 -326.20625 377.35628418 -326.3125 376.50952148 C-332.91207152 315.94077533 -320.26703016 250.49735855 -282 202 C-277.81269756 196.86993854 -273.45110183 191.90182711 -269 187 C-268.30261719 186.22914063 -267.60523437 185.45828125 -266.88671875 184.6640625 C-241.26858482 157.78422176 -204.9663412 141.63808311 -169 135 C-167.95344238 134.80301514 -167.95344238 134.80301514 -166.88574219 134.60205078 C-126.50759814 127.41542654 -84.80934757 135.93517644 -49 155 C-48.39414063 155.31694824 -47.78828125 155.63389648 -47.1640625 155.96044922 C-28.95881118 165.54503704 -13.80114372 178.99857035 -1 195 C-0.67 130.65 -0.34 66.3 0 0 Z M-190 262 C-207.64119316 283.34173201 -218.1299778 310.1971165 -219 338 C-219.02046387 338.63019043 -219.04092773 339.26038086 -219.06201172 339.90966797 C-220.12187867 377.89845279 -209.05927369 412.85866314 -182.6875 440.75 C-160.84947944 461.62002319 -132.94848513 470.86410292 -103.125 470.3125 C-76.13798565 469.3017504 -49.14306287 456.54050887 -30.6328125 436.9140625 C-20.42188731 424.94431766 -12.41418701 411.80137455 -7 397 C-6.64164063 396.0203125 -6.28328125 395.040625 -5.9140625 394.03125 C2.4377672 369.16414803 3.11933691 338.5072754 -3 313 C-3.16628906 312.28537598 -3.33257813 311.57075195 -3.50390625 310.83447266 C-8.37501762 290.60582959 -18.64861904 273.01532386 -33 258 C-33.90105469 256.98679687 -33.90105469 256.98679687 -34.8203125 255.953125 C-52.23121401 237.110158 -79.02415861 227.94406549 -104 226 C-104.89332031 225.9278125 -105.78664063 225.855625 -106.70703125 225.78125 C-137.90084452 224.60227123 -169.57075207 238.47971803 -190 262 Z " fill="#0F253E" transform="translate(4069,109)"/>
<path d="M0 0 C2.48048285 2.26413403 4.91148589 4.57595751 7.34082031 6.89501953 C8.20578125 7.70712891 9.07074219 8.51923828 9.96191406 9.35595703 C41.56560339 39.82566063 58.27413138 84.06733361 63.34082031 126.89501953 C63.43580811 127.58515137 63.5307959 128.2752832 63.62866211 128.98632812 C64.65697971 137.34632171 64.52688105 145.76846018 64.52612305 154.17773438 C64.52829281 156.86100543 64.54645061 159.54385302 64.56542969 162.22705078 C64.65924003 191.2581801 64.65924003 191.2581801 61.34082031 197.89501953 C-38.97917969 197.89501953 -139.29917969 197.89501953 -242.65917969 197.89501953 C-237.56505577 223.3656391 -232.74553356 243.57697862 -215.65917969 262.89501953 C-215.13066406 263.50603516 -214.60214844 264.11705078 -214.05761719 264.74658203 C-199.5625081 280.38416277 -175.94422057 291.15375404 -154.63598633 292.01757812 C-125.69208123 292.68828163 -100.00805987 288.94805851 -78.15332031 268.39355469 C-75.04998369 265.2810906 -72.43525285 261.85241563 -69.85449219 258.30517578 C-69.49417404 257.81443069 -69.1338559 257.32368561 -68.76261902 256.81806946 C-67.50941316 254.81152164 -67.50941316 254.81152164 -66.82197571 251.97819519 C-65.41900822 248.16232089 -64.04827945 245.2010175 -60.65917969 242.89501953 C-52.43746394 240.5234697 -43.27147871 241.50777155 -34.81933594 241.72314453 C-32.2510525 241.74553466 -29.6827177 241.76261213 -27.11436462 241.77459717 C-21.0535459 241.81567802 -14.99573531 241.91015615 -8.93604797 242.03079104 C-2.03433222 242.16518895 4.86751234 242.23096337 11.77021205 242.29113626 C25.96181602 242.41637814 40.15122518 242.62727594 54.34082031 242.89501953 C53.87955162 244.63257132 53.41484584 246.36921085 52.94873047 248.10546875 C52.69032379 249.07265839 52.43191711 250.03984802 52.16567993 251.03634644 C50.97456302 255.1643384 49.41235764 259.07756568 47.71582031 263.02001953 C47.3680957 263.83132324 47.02037109 264.64262695 46.66210938 265.47851562 C38.31524971 284.6182148 27.71835475 301.67340284 13.34082031 316.89501953 C12.2532569 318.18312656 11.16980118 319.47471487 10.09082031 320.77001953 C-23.38195203 358.91519259 -73.40045708 377.92034577 -123.05664062 381.38525391 C-180.8973591 384.98562339 -238.62675726 370.37635794 -282.65917969 331.58251953 C-284.33569511 330.03059168 -286.00169075 328.46725185 -287.65917969 326.89501953 C-288.14854004 326.43820801 -288.63790039 325.98139648 -289.14208984 325.51074219 C-307.28858167 308.48321809 -320.09073674 288.25622778 -330.65917969 265.89501953 C-331.44421875 264.25533203 -331.44421875 264.25533203 -332.24511719 262.58251953 C-357.50376818 206.98675862 -357.06952708 135.56182893 -336.50878906 78.71435547 C-317.61046431 29.1482323 -282.92206911 -8.89390598 -234.65917969 -31.10498047 C-216.75055476 -39.07931453 -198.00349541 -44.12089783 -178.65917969 -47.10498047 C-177.89831055 -47.22357422 -177.13744141 -47.34216797 -176.35351562 -47.46435547 C-114.74284475 -56.51603252 -47.00303638 -42.14833237 0 0 Z M-219.65917969 71.89501953 C-231.51047037 86.15434139 -241.65917969 108.18544724 -241.65917969 126.89501953 C-176.97917969 126.89501953 -112.29917969 126.89501953 -45.65917969 126.89501953 C-45.64508434 116.93169228 -45.64508434 116.93169228 -47.34667969 107.45751953 C-47.52674561 106.73161621 -47.70681152 106.00571289 -47.89233398 105.2578125 C-53.90877408 81.98876139 -68.86958844 63.85563814 -89.41699219 51.70751953 C-132.55718153 27.5905944 -186.46954245 35.01764482 -219.65917969 71.89501953 Z " fill="#0F253E" transform="translate(5110.6591796875,291.10498046875)"/>
<path d="M0 0 C23.1 0 46.2 0 70 0 C87.06842247 18.41406574 87.06842247 18.41406574 90.0078125 26.67578125 C94.76121181 38.31009108 101.38576783 48.25632479 108.48410034 58.57971191 C111.57035836 63.09485112 114.5605558 67.67212814 117.55859375 72.24609375 C121.34630566 77.99446882 125.14817915 83.7330578 128.97265625 89.45703125 C134.7297339 98.07377582 140.42081781 106.73390887 146.11785889 115.39041138 C154.836579 128.63700201 163.55956783 141.88001619 172.375 155.0625 C179.86603805 166.26820293 187.27597102 177.52573222 194.67211914 188.79418945 C195.65640074 190.29379044 196.64069458 191.7933834 197.625 193.29296875 C198.12579575 194.05593765 198.62659149 194.81890656 199.14256287 195.60499573 C205.218911 204.86005943 211.30945539 214.10576937 217.40170288 223.35037231 C218.65677717 225.25494299 219.91168554 227.159623 221.16641235 229.06442261 C229.54575472 241.78493595 229.54575472 241.78493595 237.98046875 254.46875 C243.73476551 263.0813086 249.42303297 271.73728177 255.11730957 280.3895874 C263.79493005 293.5736853 272.47592899 306.75483569 281.25 319.875 C292.59911785 336.85148295 303.78428143 353.93493538 315 371 C323.91 384.53 332.82 398.06 342 412 C342.33 276.04 342.66 140.08 343 0 C365.77 0 388.54 0 412 0 C412 173.25 412 346.5 412 525 C389.23 525 366.46 525 343 525 C338.58154835 518.68792621 334.21704077 512.38217926 329.9921875 505.9453125 C329.43769928 505.10314178 328.88321106 504.26097107 328.31192017 503.39328003 C326.49828412 500.63805882 324.68665425 497.88152462 322.875 495.125 C321.5854401 493.16526347 320.29572356 491.20563002 319.00585938 489.24609375 C316.3297983 485.18041094 313.65440758 481.11428823 310.97949219 477.04785156 C304.82596437 467.69441454 298.66256216 458.3474859 292.5 449 C290.08452058 445.33601319 287.66915062 441.67195426 285.25390625 438.0078125 C284.65587692 437.1005542 284.0578476 436.1932959 283.44169617 435.25854492 C279.80464626 429.74014826 276.16995901 424.22020346 272.53709412 418.6990509 C269.50466878 414.09052515 266.47125916 409.48264779 263.4375 404.875 C262.84341339 403.97258575 262.24932678 403.07017151 261.63723755 402.14041138 C254.91289549 391.92912788 248.16631827 381.73329004 241.375 371.56640625 C240.74803726 370.6276062 240.12107452 369.68880615 239.47511292 368.72155762 C236.49896286 364.26664864 233.51960471 359.81393612 230.53491211 355.36474609 C224.68408047 346.62821483 218.96186259 337.82795564 213.37460327 328.92050171 C208.87501169 321.76178685 204.21334008 314.7201881 199.49893188 307.70166016 C196.9044312 303.83788315 194.31961393 299.96763392 191.734375 296.09765625 C191.18904617 295.28152863 190.64371735 294.465401 190.0818634 293.62454224 C183.61823536 283.9430958 177.214238 274.22243424 170.8125 264.5 C169.9048288 263.12187637 169.9048288 263.12187637 168.9788208 261.71591187 C163.42919054 253.28967885 157.8826382 244.86142137 152.33691406 236.43261719 C148.70491065 230.91266411 145.07157908 225.39358675 141.4375 219.875 C140.84386658 218.97331085 140.25023315 218.0716217 139.63861084 217.14260864 C132.91381491 206.93058936 126.16679833 196.73400871 119.375 186.56640625 C118.74803726 185.6276062 118.12107452 184.68880615 117.47511292 183.72155762 C114.49896286 179.26664864 111.51960471 174.81393612 108.53491211 170.36474609 C103.32916902 162.5910893 98.20984221 154.78338978 93.25390625 146.84765625 C85.76752305 135.05929145 77.85246321 123.54774002 70 112 C69.67 248.29 69.34 384.58 69 525 C46.23 525 23.46 525 0 525 C0 351.75 0 178.5 0 0 Z " fill="#00B2B2" transform="translate(1153,141)"/>
<path d="M0 0 C3.28839092 3.19290226 6.24469152 6.54958854 9.15234375 10.08984375 C10.04426096 11.13412302 10.93618897 12.17839306 11.828125 13.22265625 C23.66585658 27.3106321 33.04091351 43.12899075 40.15234375 60.08984375 C40.66152344 61.28996094 41.17070313 62.49007812 41.6953125 63.7265625 C46.47977554 75.46247009 49.52265106 87.71470024 52.15234375 100.08984375 C52.42570557 101.36819092 52.42570557 101.36819092 52.70458984 102.67236328 C55.59518277 117.11957547 55.43377171 131.79390498 55.46484375 146.46484375 C55.47049347 147.94842377 55.47049347 147.94842377 55.47625732 149.4619751 C55.48185658 152.3667865 55.47065991 155.27102465 55.453125 158.17578125 C55.45388535 159.02126526 55.45464569 159.86674927 55.45542908 160.737854 C55.35968566 169.37480411 54.18117633 177.34476681 53.15234375 186.08984375 C-55.41765625 186.08984375 -163.98765625 186.08984375 -275.84765625 186.08984375 C-270.56337325 216.73868516 -265.37018992 242.79154977 -245.84765625 267.08984375 C-245.18121094 267.92644531 -244.51476563 268.76304687 -243.828125 269.625 C-238.81480769 275.57767615 -232.9924819 280.3473642 -226.84765625 285.08984375 C-225.61982422 286.07597656 -225.61982422 286.07597656 -224.3671875 287.08203125 C-195.55544785 309.32737442 -158.18756559 316.23503004 -122.59082031 312.07617188 C-97.73673146 308.82544219 -75.80816078 299.47601023 -56.84765625 283.08984375 C-56.08839844 282.43371094 -55.32914063 281.77757812 -54.546875 281.1015625 C-42.2045289 269.55070953 -33.71107277 253.72562113 -27.84765625 238.08984375 C-3.09765625 238.08984375 21.65234375 238.08984375 47.15234375 238.08984375 C40.91706573 266.14859482 26.8397036 291.25341621 7.15234375 312.08984375 C6.00170348 313.43992833 4.85567415 314.79395964 3.71484375 316.15234375 C-28.01315157 352.38179378 -77.46437334 369.28517478 -124.23876953 372.57788086 C-163.36335453 375.04571223 -202.48346046 369.50904235 -237.84765625 352.08984375 C-238.49637695 351.7743457 -239.14509766 351.45884766 -239.81347656 351.13378906 C-284.59779358 329.11806521 -317.66129869 288.52266822 -333.94091797 241.77050781 C-354.2595121 181.7009969 -352.44016496 110.5859684 -324.84765625 53.08984375 C-324.48414063 52.3323584 -324.120625 51.57487305 -323.74609375 50.79443359 C-302.50227917 7.28473243 -264.88207742 -25.46908718 -219.34985352 -41.69946289 C-144.59575094 -67.25659916 -58.62328268 -54.06263833 0 0 Z M-242.66015625 46.96484375 C-261.99522191 68.34180423 -274.84765625 100.24361405 -274.84765625 129.08984375 C-189.37765625 129.08984375 -103.90765625 129.08984375 -15.84765625 129.08984375 C-16.39879594 114.31243149 -16.39879594 114.31243149 -18.53515625 99.90234375 C-18.79462036 98.66955688 -18.79462036 98.66955688 -19.05932617 97.41186523 C-25.57879517 68.1068379 -43.53270974 42.25605795 -68.67919922 25.8984375 C-123.57709375 -8.60311716 -198.29955465 -0.2103184 -242.66015625 46.96484375 Z " fill="#00B2B2" transform="translate(2001.84765625,299.91015625)"/>
<path d="M0 0 C0 36.63 0 73.26 0 111 C-13.2 111.33 -26.4 111.66 -40 112 C-65.7851439 114.57851439 -90.57026391 120.67963008 -108.05859375 141.34765625 C-124.78464448 164.19873964 -126.45517827 192.78631484 -126.43237305 220.13012695 C-126.44141638 222.35980259 -126.45174976 224.58947329 -126.46325684 226.81913757 C-126.49055129 232.80118787 -126.50007341 238.78314316 -126.50611091 244.76524758 C-126.5155672 251.0432581 -126.54177577 257.3211996 -126.56611633 263.59916687 C-126.60466554 274.11337961 -126.63310016 284.6275842 -126.65356445 295.1418457 C-126.67464833 305.95990705 -126.70202057 316.77792332 -126.73754883 327.59594727 C-126.73976234 328.272275 -126.74197585 328.94860274 -126.74425644 329.64542526 C-126.76357182 335.53073862 -126.7833557 341.41605039 -126.80318546 347.30136204 C-126.88759967 372.5342172 -126.94130458 397.76704153 -127 423 C-161.98 423 -196.96 423 -233 423 C-233 285.39 -233 147.78 -233 6 C-198.02 6 -163.04 6 -127 6 C-126.67 25.8 -126.34 45.6 -126 66 C-123.36 62.37 -120.72 58.74 -118 55 C-116.45615586 53.1741963 -114.88314004 51.37138698 -113.25 49.625 C-111.06018175 47.26976383 -108.94976636 44.93653689 -106.953125 42.4140625 C-87.78113583 18.71748389 -54.07009298 5.55411979 -24.9375 0.6875 C-16.66237586 -0.13255735 -8.31565834 0 0 0 Z " fill="#0F253E" transform="translate(3490,243)"/>
<path d="M0 0 C10.1089034 -0.39533674 20.21594777 -0.69663385 30.33102894 -0.88080692 C35.02938594 -0.9692499 39.72242827 -1.08895279 44.41772461 -1.2824707 C74.6168707 -2.49448163 74.6168707 -2.49448163 81.68856812 1.53009033 C85.66171603 5.30615426 87.57292819 9.68714063 89.24038696 14.83743286 C90.3451762 17.98269337 92.11978891 20.52250023 94.01171875 23.25 C95.2374201 25.16638472 96.46267654 27.08305407 97.6875 29 C99.06639435 31.15625761 100.44530096 33.31250738 101.82421875 35.46875 C102.51563965 36.55027344 103.20706055 37.63179688 103.91943359 38.74609375 C107.27786544 43.99852036 110.63903762 49.24919244 114 54.5 C115.3333472 56.58332446 116.66668051 58.6666578 118 60.75 C118.99 62.296875 118.99 62.296875 120 63.875 C127.33333333 75.33333333 134.66666667 86.79166667 142 98.25 C142.66088623 99.28261963 143.32177246 100.31523926 144.00268555 101.37915039 C145.32712256 103.44861357 146.65150467 105.51811189 147.97583008 107.58764648 C151.07676801 112.43336354 154.17822833 117.27874357 157.28170776 122.12283325 C158.37739531 123.8331032 159.47290401 125.54348758 160.56835938 127.25390625 C161.9404004 129.39606063 163.31277457 131.53800168 164.68554688 133.6796875 C165.62043945 135.13955078 165.62043945 135.13955078 166.57421875 136.62890625 C167.16122559 137.54430176 167.74823242 138.45969727 168.35302734 139.40283203 C169.87498662 141.80286208 171.35569336 144.22412097 172.83203125 146.65234375 C174.60803158 150.01553732 174.60803158 150.01553732 177 151 C177.26087402 150.29254639 177.52174805 149.58509277 177.79052734 148.85620117 C179.08126912 145.80808087 180.62525453 143.12486901 182.3515625 140.30078125 C183.36863281 138.63112305 183.36863281 138.63112305 184.40625 136.92773438 C185.14573902 135.72259837 185.88532495 134.51752183 186.625 133.3125 C187.393523 132.05421587 188.16174754 130.79574941 188.9296875 129.53710938 C194.58518097 120.27605141 200.27732227 111.0373724 205.97265625 101.80078125 C210.8883341 93.82366946 215.76603249 85.82421805 220.625 77.8125 C221.16034866 76.92984467 221.16034866 76.92984467 221.70651245 76.02935791 C223.47021051 73.12117867 225.23347524 70.21273695 226.99658203 67.30419922 C235.68923482 52.96757201 244.42028802 38.65548105 253.23266602 24.39208984 C253.85326904 23.3861377 254.47387207 22.38018555 255.11328125 21.34375 C255.71727249 20.39513596 256.32126373 19.44652191 256.94355774 18.46916199 C258.41042818 16.09222605 259.62047461 13.70146176 260.75601196 11.15074158 C265.589234 0.87567301 265.589234 0.87567301 271.62303162 -1.31600952 C276.03588493 -1.92485565 280.41360522 -1.69077728 284.84765625 -1.46484375 C286.47137091 -1.43682305 288.09521348 -1.41549168 289.71910095 -1.40052795 C293.96904213 -1.34357182 298.21114165 -1.19659641 302.45800781 -1.02996826 C306.80100366 -0.87577725 311.14528346 -0.807862 315.49023438 -0.73242188 C323.99706703 -0.57212516 332.49755525 -0.3165893 341 0 C339.61605712 3.56720874 338.09222622 6.6200008 335.98046875 9.81640625 C335.37686523 10.73534668 334.77326172 11.65428711 334.15136719 12.60107422 C333.17925293 14.06697998 333.17925293 14.06697998 332.1875 15.5625 C330.8214304 17.63920177 329.45554832 19.71602691 328.08984375 21.79296875 C327.4026123 22.83501465 326.71538086 23.87706055 326.00732422 24.95068359 C323.06958556 29.41338802 320.15853713 33.89323076 317.25 38.375 C316.45082153 39.60488647 316.45082153 39.60488647 315.63549805 40.85961914 C311.80215237 46.75956642 307.97896309 52.66604489 304.15869141 58.57446289 C299.0052795 66.54245911 293.83085804 74.49678404 288.65722656 82.45166016 C285.93741031 86.63395863 283.21875722 90.81701304 280.5 95 C279.41667239 96.66667039 278.33333905 98.33333705 277.25 100 C276.71375 100.825 276.1775 101.65 275.625 102.5 C270.74999999 110.00000001 270.74999999 110.00000001 269.12451172 112.50073242 C268.0427831 114.1649428 266.96107732 115.82916803 265.87939453 117.4934082 C263.14669755 121.69777895 260.41358595 125.90187914 257.6796875 130.10546875 C252.61182146 137.89850804 247.54737182 145.69366783 242.5 153.5 C238.54978303 159.60945792 234.59021248 165.71276422 230.625 171.8125 C229.8220752 173.04891235 229.8220752 173.04891235 229.00292969 174.31030273 C226.11866693 178.74991495 223.22550947 183.18342916 220.3203125 187.609375 C219.7226709 188.52227295 219.1250293 189.4351709 218.50927734 190.37573242 C217.35869587 192.13289994 216.20548069 193.88834647 215.04931641 195.6418457 C214.53288574 196.43163818 214.01645508 197.22143066 213.484375 198.03515625 C213.02772461 198.7300415 212.57107422 199.42492676 212.10058594 200.14086914 C210.8453801 202.1119321 210.8453801 202.1119321 210 205 C210.91062078 207.07002416 210.91062078 207.07002416 212.40234375 209.2265625 C212.9545459 210.08032471 213.50674805 210.93408691 214.07568359 211.8137207 C214.69008301 212.74144287 215.30448242 213.66916504 215.9375 214.625 C217.24101932 216.63142343 218.54439953 218.63793724 219.84765625 220.64453125 C220.53230957 221.6907666 221.21696289 222.73700195 221.92236328 223.81494141 C225.27673433 228.95725924 228.57231921 234.13690037 231.875 239.3125 C233.22353816 241.41953981 234.57249982 243.52630863 235.921875 245.6328125 C236.59412109 246.68243164 237.26636719 247.73205078 237.95898438 248.81347656 C238.63251953 249.8650293 239.30605469 250.91658203 240 252 C248.25551771 264.88887764 256.50363919 277.78218947 264.71582031 290.69873047 C271.7859316 301.81489358 278.89443564 312.90648014 286 324 C294.25124231 336.88220271 302.49680222 349.76776752 310.70263672 362.67895508 C314.51184349 368.66971978 318.33642083 374.65045455 322.16796875 380.62695312 C327.47184201 388.90119443 332.77359074 397.17653044 338 405.5 C338.41540039 406.1585498 338.83080078 406.81709961 339.25878906 407.49560547 C342 411.88082349 342 411.88082349 342 413 C331.97917124 413.58301831 321.96244723 414.02517485 311.92803192 414.2953043 C307.26570037 414.42508878 302.61506255 414.60034521 297.95947266 414.88598633 C268.02815873 416.67450513 268.02815873 416.67450513 259.81158447 410.66995239 C254.5273212 404.83730365 251.26072064 398.20090754 248.26794434 390.97525024 C246.68052238 387.250341 244.72683194 384.19046105 242.4296875 380.86328125 C234.50480481 368.48932289 226.60103625 356.10217196 218.71777344 343.70166016 C215.81326436 339.13353943 212.90650771 334.56684923 210 330 C208.8333228 328.16667337 207.66665613 326.33334004 206.5 324.5 C205.9225 323.5925 205.345 322.685 204.75 321.75 C199.5 313.5 199.5 313.5 197.74853516 310.74755859 C196.58691995 308.92225595 195.42513727 307.09705986 194.26318359 305.27197266 C191.26781689 300.5666492 188.2757675 295.8592645 185.2890625 291.1484375 C184.0678768 289.22385143 182.84652548 287.29937043 181.625 285.375 C181.04218262 284.4562207 180.45936523 283.53744141 179.85888672 282.59082031 C176.09293003 276.67026551 172.24608098 270.82068627 168.2578125 265.046875 C167 263 167 263 167 261 C166.34 261 165.68 261 165 261 C164.72542969 261.72727295 164.45085938 262.4545459 164.16796875 263.20385742 C163.05273684 265.87374685 161.78656646 268.25180374 160.3125 270.73828125 C159.78422607 271.63192383 159.25595215 272.52556641 158.71166992 273.44628906 C157.86439331 274.86506348 157.86439331 274.86506348 157 276.3125 C156.1188855 277.79508301 156.1188855 277.79508301 155.2199707 279.30761719 C151.15830877 286.11887337 147.00569291 292.86568377 142.77734375 299.57421875 C133.45338609 314.3861306 124.37716118 329.35675454 115.29003906 344.31469727 C110.21944043 352.65510109 105.10277261 360.96676338 99.98071289 369.27563477 C94.87963408 377.55581753 89.8143117 385.85720929 84.77929688 394.17773438 C83.75582415 395.86514902 82.71672519 397.5432411 81.65820312 399.20889282 C79.94955375 401.95384357 79.94955375 401.95384357 78.74328613 404.87545776 C77.13758885 408.17723486 75.67645937 410.46822303 73 413 C67.44210791 414.55267089 62.07327184 414.28672076 56.34765625 414.07421875 C54.72103655 414.05368073 53.09434841 414.03803283 51.46763611 414.02705383 C47.20292527 413.98521561 42.94239081 413.8773319 38.67932129 413.75531006 C34.32259631 413.64241363 29.96519054 413.59246718 25.60742188 413.53710938 C17.0697059 413.41942736 8.53537356 413.23191326 0 413 C0.9406404 411.25535651 1.8837512 409.51204483 2.82788086 407.76928711 C3.35280624 406.79833603 3.87773163 405.82738495 4.41856384 404.82701111 C6.6001 400.92724765 9.03971395 397.2469991 11.5625 393.5625 C12.62083105 391.99549314 13.67808444 390.42775803 14.734375 388.859375 C15.54358398 387.65958008 15.54358398 387.65958008 16.36914062 386.43554688 C19.05743183 382.42081738 21.68567044 378.3676103 24.3125 374.3125 C25.40233085 372.63150205 26.49217484 370.95051262 27.58203125 369.26953125 C28.13713379 368.41311035 28.69223633 367.55668945 29.26416016 366.67431641 C32.33443427 361.94410788 35.41784515 357.22247206 38.5 352.5 C45.34557825 342.00794094 52.17561413 331.50585173 59 321 C66.45883165 309.51744598 73.92739103 298.04134158 81.40917969 286.57373047 C87.08505363 277.8727707 92.74796927 269.16343377 98.40722656 260.45166016 C101.6404791 255.4749094 104.87522238 250.49912724 108.11010742 245.5234375 C110.90705131 241.22109838 113.70263848 236.91788645 116.49609375 232.61328125 C117.07230469 231.72576172 117.64851563 230.83824219 118.2421875 229.92382812 C119.3324773 228.24443012 120.42235504 226.5647645 121.51171875 224.88476562 C122.011875 224.11455078 122.51203125 223.34433594 123.02734375 222.55078125 C123.50929199 221.80006348 123.99124023 221.0493457 124.48779297 220.27587891 C125.5436322 218.68683575 126.64596797 217.12814682 127.78173828 215.59521484 C128.35005371 214.81484863 128.91836914 214.03448242 129.50390625 213.23046875 C130.02927979 212.53719482 130.55465332 211.8439209 131.09594727 211.12963867 C132.27614222 208.96523316 132.27614222 208.96523316 131.2878418 206.45019531 C130.22036425 204.41925603 129.15546434 202.47805125 127.890625 200.56640625 C127.26414062 199.61024414 127.26414062 199.61024414 126.625 198.63476562 C126.17125 197.95091797 125.7175 197.26707031 125.25 196.5625 C124.25431908 195.04355129 123.25957394 193.52398887 122.265625 192.00390625 C121.47188477 190.79178467 121.47188477 190.79178467 120.66210938 189.55517578 C117.73813166 185.06011838 114.87184607 180.5284685 112 176 C107.86088588 169.48184665 103.70495617 162.97588206 99.5 156.5 C95.29504034 150.02411258 91.13963337 143.51782761 87 137 C82.90036461 130.54580699 78.78754292 124.10131826 74.625 117.6875 C68.06208441 107.57379424 61.57461033 97.4119167 55.08056641 87.25390625 C51.72213458 82.00147966 48.36099771 76.75078492 45 71.5 C40.93998326 65.15715882 36.88067196 58.81387093 32.82421875 52.46875 C31.44539097 50.31244982 30.06648558 48.15619927 28.6875 46 C27.68468994 44.43197632 27.68468994 44.43197632 26.66162109 42.83227539 C22.83570474 36.85445887 18.99059819 30.88971385 15.125 24.9375 C11.4792078 19.31764471 7.87490961 13.67311512 4.3125 8 C3.87760254 7.310271 3.44270508 6.62054199 2.99462891 5.90991211 C0 1.11911826 0 1.11911826 0 0 Z " fill="#00B2B2" transform="translate(2098,253)"/>
<path d="M0 0 C23.1 0 46.2 0 70 0 C70 33.99 70 67.98 70 103 C105.31 103 140.62 103 177 103 C177 122.14 177 141.28 177 161 C141.69 161 106.38 161 70 161 C70.03940002 193.34062717 70.09307619 225.68108446 70.17792095 258.02161592 C70.18793748 261.84644148 70.19778177 265.67126747 70.20751953 269.49609375 C70.2094609 270.25749416 70.21140228 271.01889458 70.21340248 271.80336773 C70.24435799 284.10482074 70.26138507 296.40625512 70.27319422 308.70773971 C70.28563931 321.3459285 70.31321604 333.98402014 70.35461307 346.62214756 C70.3796528 354.41006166 70.39312428 362.19781447 70.39142957 369.98576939 C70.39139608 375.97445491 70.41249439 381.96288319 70.44116783 387.95150757 C70.44963886 390.39585983 70.45143595 392.84024648 70.44580269 395.28460693 C70.26782589 421.34125377 70.26782589 421.34125377 82 444 C94.91320805 455.64385678 113.37913018 456.26663081 129.83203125 456.4140625 C131.20351753 456.43283286 132.57499297 456.45241031 133.94645691 456.4727478 C137.50873337 456.52345688 141.07104704 456.56340447 144.63348389 456.60089111 C148.28764544 456.64132118 151.94166282 456.69213375 155.59570312 456.7421875 C162.73040987 456.83917587 169.86501887 456.9191865 177 457 C177 476.47 177 495.94 177 516 C159.04462302 516.08021762 159.04462302 516.08021762 151.26757812 516.09765625 C146.00394554 516.10951585 140.74038387 516.1233948 135.47680664 516.15087891 C131.22330269 516.17294455 126.969875 516.18463794 122.71631813 516.18975449 C121.11038834 516.19339084 119.50446171 516.2004869 117.89856529 516.21146011 C102.62792728 516.31145561 87.18504234 515.53025152 72.3125 511.8125 C71.00817017 511.49104004 71.00817017 511.49104004 69.67749023 511.16308594 C47.8924325 505.5125179 27.24694499 493.64682936 15.55078125 473.85546875 C1.03903928 447.1348557 -0.16081174 419.0594581 -0.11352539 389.29956055 C-0.11324298 386.8050639 -0.11340231 384.31056716 -0.1139679 381.81607056 C-0.1141947 376.46768759 -0.11138115 371.11931979 -0.10573006 365.77094078 C-0.09756514 358.03830833 -0.09499475 350.30568176 -0.09374207 342.57304547 C-0.09155935 330.02403541 -0.08492052 317.4750319 -0.07543945 304.92602539 C-0.06624508 292.74373405 -0.05917418 280.5614445 -0.05493164 268.37915039 C-0.05466892 267.62685591 -0.05440619 266.87456144 -0.05413551 266.09947016 C-0.05283037 262.32501839 -0.05156668 258.55056661 -0.05032361 254.77611482 C-0.03997532 223.51740408 -0.02155018 192.25870552 0 161 C-17.49 161 -34.98 161 -53 161 C-53 141.86 -53 122.72 -53 103 C-35.51 103 -18.02 103 0 103 C0 69.01 0 35.02 0 0 Z " fill="#00B2B2" transform="translate(2521,150)"/>
<path d="M0 0 C34.98 0 69.96 0 106 0 C106 137.61 106 275.22 106 417 C71.02 417 36.04 417 0 417 C0 279.39 0 141.78 0 0 Z " fill="#0F253E" transform="translate(3560,249)"/>
<path d="M0 0 C2.54719858 2.22202429 4.94659807 4.52389585 7.3203125 6.9296875 C8.403125 7.99703125 8.403125 7.99703125 9.5078125 9.0859375 C21.00654845 21.10734327 24.83521403 36.00365571 24.671875 52.26269531 C24.16356377 68.88870835 17.96197737 83.02019292 6.3203125 94.9296875 C-9.99451282 109.26087969 -27.78945034 113.17280882 -49.02929688 112.13671875 C-65.87382398 110.82093402 -80.1851931 103.17942913 -91.6796875 90.9296875 C-104.49775142 75.75678987 -107.09614564 58.1120718 -105.6796875 38.9296875 C-103.66354877 24.34822264 -95.58045137 10.70738885 -84.03564453 1.63818359 C-76.8363698 -3.61116035 -69.29867313 -7.67394322 -60.6796875 -10.0703125 C-59.95394531 -10.29332031 -59.22820313 -10.51632813 -58.48046875 -10.74609375 C-39.36507661 -15.65004252 -15.70711578 -12.13523522 0 0 Z " fill="#0F253E" transform="translate(3654.6796875,88.0703125)"/>
<path d="M0 0 C23 0 23 0 27.8125 4.5 C28.93534715 6.63601614 29.99409167 8.80648704 31 11 C32.39585018 13.44542399 33.89442513 15.82303237 35.3984375 18.203125 C35.83173874 18.89218933 36.26503998 19.58125366 36.71147156 20.29119873 C41.69326474 28.16595642 46.87500077 35.90703461 52.06549072 43.64511108 C55.12620201 48.20880345 58.17841145 52.77817352 61.23046875 57.34765625 C61.86327759 58.29490067 62.49608643 59.24214508 63.14807129 60.21809387 C71.56613559 72.82972668 79.89652033 85.49921224 88.22973633 98.16699219 C89.37449314 99.90691326 90.51926805 101.64682243 91.6640625 103.38671875 C92.20840439 104.21434723 92.75274628 105.04197571 93.31358337 105.89468384 C97.13621233 111.70189411 100.98276391 117.49270218 104.86221313 123.26213074 C107.00797394 126.4639297 109.01396514 129.68994189 111 133 C111.33 89.11 111.66 45.22 112 0 C119.59 0 127.18 0 135 0 C135 56.76 135 113.52 135 172 C111 172 111 172 105.51953125 167.203125 C104.54755155 165.53515062 103.57864055 163.86157032 102.73098755 162.12710571 C101.76630425 160.1555901 100.70353033 158.27159674 99.60131836 156.3737793 C98.37932636 154.26340125 97.1675143 152.15051136 95.98646545 150.01689148 C91.11790371 141.22648035 85.50195293 132.94162617 79.91894531 124.59448242 C77.42596718 120.85862159 74.957035 117.10713823 72.48742676 113.35580444 C66.77709165 104.68442767 61.03273114 96.03605044 55.265625 87.40234375 C54.321782 85.98904533 54.321782 85.98904533 53.35887146 84.54719543 C50.36366917 80.06375087 47.3651875 75.58254896 44.36157227 71.10473633 C38.76717975 62.75026745 33.26489788 54.35738646 27.99067688 45.79620361 C26.21549941 42.73217193 26.21549941 42.73217193 24 40 C23.67 83.56 23.34 127.12 23 172 C15.41 172 7.82 172 0 172 C0 115.24 0 58.48 0 0 Z " fill="#00B2B2" transform="translate(2742,773)"/>
<path d="M0 0 C86.42934783 0 86.42934783 0 102.9375 15.1875 C113.06782767 26.08132663 116.32563724 40.04894006 115.89453125 54.546875 C114.76586058 67.13487255 109.76240376 79.84118842 100.1328125 88.39453125 C93.09062283 93.69552018 85.04841097 99 76 99 C81.41579087 108.93666474 87.16851312 118.65334321 93.0625 128.3125 C98.75233527 137.6397144 104.41148315 146.98327329 109.98849487 156.37850952 C110.70261517 157.58133136 111.41755662 158.78366606 112.1333313 159.98550415 C113.12375135 161.64911825 114.11079498 163.31474111 115.09765625 164.98046875 C115.65976807 165.92817139 116.22187988 166.87587402 116.80102539 167.85229492 C118 170 118 170 118 171 C110.9003777 171.59943853 103.83271921 171.93853483 96.70703125 171.76171875 C95.53889893 171.73553467 94.3707666 171.70935059 93.16723633 171.68237305 C89.13882788 170.81446265 87.72199284 169.31485219 85.1875 166.125 C84.42030544 164.22449658 83.66080624 162.3197245 82.97412109 160.38867188 C80.88756894 155.27217405 77.8119378 150.61773817 75 145.875 C73.70325046 143.62121602 72.40903728 141.36597106 71.1171875 139.109375 C68.29190135 134.1970014 65.41628304 129.31666866 62.5078125 124.453125 C62.13968445 123.83668121 61.7715564 123.22023743 61.39227295 122.58511353 C59.60671174 119.59678051 57.81538719 116.61212514 56.015625 113.63232422 C55.37367188 112.55998535 54.73171875 111.48764648 54.0703125 110.3828125 C53.21590576 108.96572998 53.21590576 108.96572998 52.34423828 107.52001953 C51 105 51 105 50 101 C41.42 101 32.84 101 24 101 C24 124.1 24 147.2 24 171 C16.08 171 8.16 171 0 171 C0 114.57 0 58.14 0 0 Z M24 19 C24 40.12 24 61.24 24 83 C29.15625 83.04125 34.3125 83.0825 39.625 83.125 C42.01806396 83.15231201 42.01806396 83.15231201 44.45947266 83.18017578 C62.51430242 83.42471858 62.51430242 83.42471858 79 77 C79.86625 76.46375 80.7325 75.9275 81.625 75.375 C89.12537213 67.87462787 91.64572763 59.47465307 92 49 C91.46007145 40.54471889 89.15229634 32.67281372 82.875 26.75 C74.56124393 20.17424897 65.00147599 18.83983718 54.76171875 18.90234375 C53.58977966 18.90385437 53.58977966 18.90385437 52.39416504 18.90539551 C49.4919283 18.91060447 46.58971259 18.92456567 43.6875 18.9375 C37.190625 18.958125 30.69375 18.97875 24 19 Z " fill="#00B2B2" transform="translate(3504,774)"/>
<path d="M0 0 C8.237768 7.76521387 12.29466464 15.6863352 14.8125 26.75 C14.8125 28.07 14.8125 29.39 14.8125 30.75 C6.2325 30.75 -2.3475 30.75 -11.1875 30.75 C-12.1775 27.78 -13.1675 24.81 -14.1875 21.75 C-18.43182813 14.67987251 -25.24260814 10.45718422 -33.08251953 8.20581055 C-41.72770679 6.3337896 -54.46910594 6.14361313 -62.1875 10.75 C-67.36524193 14.37692067 -72.01587397 18.2435245 -73.82421875 24.48046875 C-75.03287959 32.03134993 -75.13838757 39.07436239 -71.1875 45.75 C-65.16655284 52.9751366 -57.21133699 56.435927 -48.4375 59.1875 C-47.07637085 59.62908447 -47.07637085 59.62908447 -45.68774414 60.07958984 C-40.20942506 61.84208475 -34.70289101 63.50004139 -29.18188477 65.12304688 C-12.80667325 69.93882568 1.59428128 75.18557061 11.8125 89.75 C17.41351619 101.24341473 18.61882587 114.51172354 14.8125 126.75 C9.06580301 141.30941598 0.30115956 150.75116329 -13.96875 157.12109375 C-31.78043934 164.39310278 -52.70375904 163.37710197 -70.5 156.5625 C-83.15485564 150.80247739 -93.03186285 141.80749309 -98.1875 128.75 C-99.97892025 123.42692269 -100.1875 119.56852176 -100.1875 113.75 C-91.9375 113.75 -83.6875 113.75 -75.1875 113.75 C-74.383125 116.4725 -74.383125 116.4725 -73.5625 119.25 C-70.58001601 127.99176343 -67.48694812 132.84261565 -59.1875 137.1875 C-47.96178014 142.55187394 -35.65125824 141.92926248 -24.07421875 137.94921875 C-16.62495961 134.85460095 -12.41663559 130.43118473 -8.9375 123.125 C-7.09498625 114.83368813 -7.28502213 107.38037506 -11.60546875 99.9296875 C-20.16734186 88.13332899 -38.09510361 85.43604677 -51.3125 81.75 C-68.4634554 76.95035562 -85.56623919 72.05130718 -95.1875 55.75 C-100.9136147 43.31518287 -101.16676604 28.58542543 -96.56640625 15.74609375 C-90.67374143 2.94248492 -80.59855335 -4.88281007 -67.80859375 -10.2890625 C-63.97021096 -11.69627884 -60.2244001 -12.62948709 -56.1875 -13.25 C-55.47851562 -13.37246094 -54.76953125 -13.49492188 -54.0390625 -13.62109375 C-34.86182786 -16.27187192 -14.90947926 -12.73841096 0 0 Z " fill="#00B2B2" transform="translate(4069.1875,785.25)"/>
<path d="M0 0 C7.59 0 15.18 0 23 0 C23.01981934 3.36026367 23.03963867 6.72052734 23.06005859 10.18261719 C23.12711945 21.31459919 23.20475646 32.44648961 23.28752708 43.57836533 C23.33749053 50.32419352 23.38393417 57.07001055 23.421875 63.81591797 C23.45888807 70.33232614 23.50529088 76.84860738 23.55806351 83.36490631 C23.57652257 85.84461478 23.59166145 88.32435038 23.60334396 90.80410004 C23.62035231 94.29108029 23.64942154 97.77777517 23.68115234 101.26464844 C23.68331253 102.27813858 23.68547272 103.29162872 23.68769836 104.33583069 C23.84898034 118.31061965 25.79819945 131.57835667 35.7265625 142.0234375 C43.95526722 149.17760346 54.2436099 151.39221265 64.875 151.3125 C65.66583984 151.30686035 66.45667969 151.3012207 67.27148438 151.29541016 C78.0138418 151.07253051 87.96588789 147.90462473 95.8203125 140.21875 C101.99337588 132.64976777 105.08594757 122.61360495 105.15821838 112.91899109 C105.1680072 111.91924759 105.17779602 110.91950409 105.18788147 109.88946533 C105.19363693 108.80405457 105.1993924 107.7186438 105.20532227 106.6003418 C105.21522186 105.44869034 105.22512146 104.29703888 105.23532104 103.11048889 C105.26688935 99.30675304 105.29167515 95.5030047 105.31640625 91.69921875 C105.3369798 89.06077247 105.35797638 86.42232945 105.37937927 83.78388977 C105.42922799 77.55087085 105.47419572 71.3178267 105.51740164 65.08475858 C105.56684099 57.98680344 105.62173421 50.88889375 105.67708123 43.7909826 C105.79078116 29.19403027 105.89692626 14.59703135 106 0 C113.59 0 121.18 0 129 0 C129.09065195 15.50008905 129.16418516 31.00004473 129.20724869 46.50032806 C129.22778442 53.69904643 129.2557305 60.89758715 129.30175781 68.09619141 C129.34190367 74.37799445 129.36749794 80.65966872 129.37635398 86.94159651 C129.38152252 90.26117589 129.39564772 93.58009809 129.42292023 96.89961243 C129.59944659 119.29233937 128.55808548 138.48405789 112.58496094 155.71386719 C102.06756496 166.32896956 86.86673249 172.35244722 72 173 C71.01128906 173.0515625 70.02257813 173.103125 69.00390625 173.15625 C48.85277656 173.70520245 31.34436064 168.77599953 16.0390625 155.26953125 C12.08201097 151.21400106 9.38493606 146.47207793 6.75 141.5 C6.42040283 140.90251953 6.09080566 140.30503906 5.7512207 139.68945312 C-1.86294935 124.46500873 -0.39813532 106.3283433 -0.29296875 89.84375 C-0.28736278 87.2434514 -0.28309742 84.6431496 -0.28010559 82.04284668 C-0.26989246 75.9411212 -0.24634408 69.83958612 -0.21605712 63.73793173 C-0.18228493 56.7800382 -0.16597034 49.82213592 -0.15097082 42.86418056 C-0.11978604 28.57601774 -0.06486705 14.2880487 0 0 Z " fill="#00B2B2" transform="translate(3241,774)"/>
<path d="M0 0 C8.25 0 16.5 0 25 0 C28.36570851 7.94174205 31.50509501 15.91236429 34.4140625 24.03125 C34.82178894 25.1612291 35.22951538 26.29120819 35.64959717 27.45542908 C36.74926442 30.50403583 37.84646611 33.55351632 38.94274139 36.60334396 C40.80641772 41.78430162 42.6779822 46.96242092 44.54794693 52.14111137 C45.26826997 54.13623217 45.98825767 56.13147377 46.70822144 58.12672424 C51.5627082 71.5762322 56.4637491 85.00861887 61.375 98.4375 C61.95667938 100.02884766 61.95667938 100.02884766 62.55010986 101.65234375 C63.30353081 103.71346609 64.05715728 105.77451332 64.81100464 107.83547974 C65.52461762 109.78654524 66.23778756 111.73777286 66.95046997 113.68917847 C68.64588831 118.32592311 70.35483637 122.9568894 72.09082031 127.57861328 C72.41966217 128.45800064 72.74850403 129.337388 73.08731079 130.24342346 C73.70422089 131.89093365 74.32505425 133.5369822 74.95053101 135.18125916 C76.09815727 138.25190661 77 140.69325976 77 144 C77.66 144 78.32 144 79 144 C79.14550293 142.80165527 79.14550293 142.80165527 79.29394531 141.57910156 C80.17906992 137.09226657 81.69125661 133.00762625 83.296875 128.734375 C83.80839363 127.352286 83.80839363 127.352286 84.33024597 125.942276 C85.07393344 123.93420027 85.81997629 121.92699564 86.56808472 119.92056274 C88.61519563 114.42905783 90.64436761 108.93092039 92.67578125 103.43359375 C93.32052147 101.69084419 93.32052147 101.69084419 93.97828674 99.91288757 C98.57130208 87.48427727 103.08065337 75.02572458 107.58227539 62.56381226 C109.79638842 56.43506483 112.01352962 50.30741309 114.23046875 44.1796875 C114.6465036 43.0296373 115.06253845 41.8795871 115.49118042 40.69468689 C118.66972356 31.90947071 121.84832752 23.12429176 125.05276489 14.34848022 C125.72707352 12.50033685 126.39861983 10.65118635 127.07006836 8.80200195 C127.45428955 7.75230225 127.83851074 6.70260254 128.234375 5.62109375 C128.55631836 4.7386499 128.87826172 3.85620605 129.20996094 2.94702148 C130 1 130 1 131 0 C132.85369611 -0.08737645 134.71067541 -0.10698153 136.56640625 -0.09765625 C138.08536499 -0.09390991 138.08536499 -0.09390991 139.63500977 -0.09008789 C140.93108154 -0.08098389 142.22715332 -0.07187988 143.5625 -0.0625 C145.78116689 -0.05101196 147.99983567 -0.03988568 150.21850586 -0.02905273 C153.10925293 -0.01452637 153.10925293 -0.01452637 156 0 C148.58700916 20.341483 141.03681367 40.62776147 133.38635635 60.88100815 C131.97432057 64.61994217 130.56378389 68.3594417 129.15307617 72.09887695 C127.14801757 77.41337959 125.14242271 82.72767929 123.13615131 88.04172421 C120.2609973 95.65727504 117.38849421 103.27381858 114.51881409 110.89143372 C112.70592761 115.70377011 110.89230407 120.51582854 109.07858276 125.32785034 C108.24882635 127.5296739 107.41932881 129.73159503 106.59011841 131.93362427 C102.76164255 142.0990988 98.92287646 152.26052505 95.01171875 162.39453125 C94.71997269 163.15545578 94.42822662 163.91638031 94.12763977 164.70036316 C92.11690964 169.88309036 92.11690964 169.88309036 91 171 C89.00035018 171.08758003 86.9976389 171.10696576 84.99609375 171.09765625 C83.78115234 171.09443359 82.56621094 171.09121094 81.31445312 171.08789062 C80.03505859 171.07951172 78.75566406 171.07113281 77.4375 171.0625 C76.15423828 171.05798828 74.87097656 171.05347656 73.54882812 171.04882812 C70.36583978 171.03699545 67.18294238 171.02051068 64 171 C63.7437384 170.31589554 63.48747681 169.63179108 63.22344971 168.92695618 C52.09189928 139.21224614 40.95812977 109.49842973 29.75 79.8125 C29.35304932 78.76095734 28.95609863 77.70941467 28.54711914 76.62600708 C24.5271073 65.97748914 20.50371723 55.33025169 16.47616196 44.68458462 C14.35346951 39.07370608 12.23228715 33.46225768 10.1114502 27.85067749 C8.7731376 24.31119286 7.4329754 20.77241215 6.09277344 17.23364258 C5.28570829 15.09850747 4.47873688 12.96333693 3.671875 10.828125 C3.29796631 9.84243027 2.92405762 8.85673553 2.53881836 7.84117126 C2.20213135 6.9490242 1.86544434 6.05687714 1.51855469 5.13769531 C1.22358093 4.35823547 0.92860718 3.57877563 0.62469482 2.7756958 C0 1 0 1 0 0 Z " fill="#00B2B2" transform="translate(2242,774)"/>
<path d="M0 0 C30.36 0 60.72 0 92 0 C92 6.6 92 13.2 92 20 C69.23 20 46.46 20 23 20 C23 38.48 23 56.96 23 76 C43.46 76 63.92 76 85 76 C85 82.27 85 88.54 85 95 C64.54 95 44.08 95 23 95 C23 114.14 23 133.28 23 153 C45.77 153 68.54 153 92 153 C92 159.27 92 165.54 92 172 C61.64 172 31.28 172 0 172 C0 115.24 0 58.48 0 0 Z " fill="#00B2B2" transform="translate(3751,773)"/>
<path d="M0 0 C30.36 0 60.72 0 92 0 C92 6.6 92 13.2 92 20 C69.23 20 46.46 20 23 20 C23 38.48 23 56.96 23 76 C43.46 76 63.92 76 85 76 C85 82.27 85 88.54 85 95 C64.54 95 44.08 95 23 95 C23 114.14 23 133.28 23 153 C45.77 153 68.54 153 92 153 C92 159.27 92 165.54 92 172 C61.64 172 31.28 172 0 172 C0 115.24 0 58.48 0 0 Z " fill="#00B2B2" transform="translate(2519,773)"/>
<path d="M0 0 C38.28 0 76.56 0 116 0 C116 6.27 116 12.54 116 19 C100.82 19 85.64 19 70 19 C70 69.16 70 119.32 70 171 C62.41 171 54.82 171 47 171 C47 120.84 47 70.68 47 19 C31.49 19 15.98 19 0 19 C0 12.73 0 6.46 0 0 Z " fill="#00B2B2" transform="translate(3001,774)"/>
</svg>
